<?xml version="1.0" encoding="UTF-8" standalone="no"?>
<!-- Created with Inkscape (http://www.inkscape.org/) -->

<svg
   xmlns:dc="http://purl.org/dc/elements/1.1/"
   xmlns:cc="http://creativecommons.org/ns#"
   xmlns:rdf="http://www.w3.org/1999/02/22-rdf-syntax-ns#"
   xmlns:svg="http://www.w3.org/2000/svg"
   xmlns="http://www.w3.org/2000/svg"
   xmlns:sodipodi="http://sodipodi.sourceforge.net/DTD/sodipodi-0.dtd"
   xmlns:inkscape="http://www.inkscape.org/namespaces/inkscape"
   version="1.1"
   id="svg10"
   xml:space="preserve"
   width="793.70074"
   height="1122.5197"
   viewBox="0 0 793.70074 1122.5197"
   sodipodi:docname="zenntaizu.svg"
   inkscape:version="0.92.0 r15299"><metadata
     id="metadata16"><rdf:RDF><cc:Work
         rdf:about=""><dc:format>image/svg+xml</dc:format><dc:type
           rdf:resource="http://purl.org/dc/dcmitype/StillImage" /><dc:title></dc:title></cc:Work></rdf:RDF></metadata><defs
     id="defs14" /><sodipodi:namedview
     pagecolor="#ffffff"
     bordercolor="#666666"
     borderopacity="1"
     objecttolerance="10"
     gridtolerance="10"
     guidetolerance="10"
     inkscape:pageopacity="0"
     inkscape:pageshadow="2"
     inkscape:window-width="1600"
     inkscape:window-height="838"
     id="namedview12"
     showgrid="false"
     inkscape:zoom="0.58261786"
     inkscape:cx="396.85037"
     inkscape:cy="355.29292"
     inkscape:window-x="-8"
     inkscape:window-y="-8"
     inkscape:window-maximized="1"
     inkscape:current-layer="g18" /><g
     id="g18"
     inkscape:groupmode="layer"
     inkscape:label="zenntaizu"
     transform="matrix(1.3333333,0,0,-1.3333333,0,1122.5197)"><g
       id="g20"><g
         id="g22"
         transform="matrix(1,0,0,-1,0,841.88977)"><path
           d="M 467.449,562.707 C 15.531,563.465 15.531,563.465 15.531,563.465"
           style="fill:none;stroke:#000000;stroke-width:0.75118101;stroke-linecap:butt;stroke-linejoin:miter;stroke-miterlimit:4;stroke-dasharray:none;stroke-opacity:1"
           id="path24"
           inkscape:connector-curvature="0" /></g><g
         id="g26"
         transform="matrix(-1,-0.00167645,-0.00167645,1,0,841.88977)"><path
           d="m -458.471,-560.159 -9.03,-3.32 9.029,-3.317 c -1.444,1.959 -1.433,4.638 10e-4,6.637 z"
           style="fill:#000000;fill-opacity:1;fill-rule:evenodd;stroke:#000000;stroke-width:0.51643598;stroke-linecap:butt;stroke-linejoin:round;stroke-miterlimit:4;stroke-dasharray:none;stroke-opacity:1"
           id="path28"
           inkscape:connector-curvature="0" /></g><g
         id="g30"
         transform="matrix(1,0,0,-1,0,841.88977)"><path
           d="m 129.746,562.805 c -0.766,-99.91 -0.766,-99.91 -0.766,-99.91"
           style="fill:none;stroke:#000000;stroke-width:0.354626;stroke-linecap:butt;stroke-linejoin:miter;stroke-miterlimit:4;stroke-dasharray:none;stroke-opacity:1"
           id="path32"
           inkscape:connector-curvature="0" /></g><g
         id="g34"
         transform="matrix(1,0,0,-1,0,841.88977)"><path
           d="M 71.785,563.184 C 71.023,463.273 71.023,463.273 71.023,463.273"
           style="fill:none;stroke:#000000;stroke-width:0.354626;stroke-linecap:butt;stroke-linejoin:miter;stroke-miterlimit:4;stroke-dasharray:none;stroke-opacity:1"
           id="path36"
           inkscape:connector-curvature="0" /></g><g
         id="g38"
         transform="matrix(1,0,0,-1,0,841.88977)"><path
           d="m 191.867,562.047 c -0.762,-99.91 -0.762,-99.91 -0.762,-99.91"
           style="fill:none;stroke:#000000;stroke-width:0.354626;stroke-linecap:butt;stroke-linejoin:miter;stroke-miterlimit:4;stroke-dasharray:none;stroke-opacity:1"
           id="path40"
           inkscape:connector-curvature="0" /></g><g
         id="g42"
         transform="matrix(1,0,0,-1,0,841.88977)"><path
           d="m 255.887,561.668 c -0.762,-99.91 -0.762,-99.91 -0.762,-99.91"
           style="fill:none;stroke:#000000;stroke-width:0.354626;stroke-linecap:butt;stroke-linejoin:miter;stroke-miterlimit:4;stroke-dasharray:none;stroke-opacity:1"
           id="path44"
           inkscape:connector-curvature="0" /></g><g
         id="g46"
         transform="matrix(1,0,0,-1,0,841.88977)"><path
           d="m 316.117,562.805 c -0.762,-99.91 -0.762,-99.91 -0.762,-99.91"
           style="fill:none;stroke:#000000;stroke-width:0.354626;stroke-linecap:butt;stroke-linejoin:miter;stroke-miterlimit:4;stroke-dasharray:none;stroke-opacity:1"
           id="path48"
           inkscape:connector-curvature="0" /></g><g
         id="g50"
         transform="matrix(1,0,0,-1,0,841.88977)"><path
           d="m 381.273,563.18 c -0.765,-98.391 -0.765,-98.391 -0.765,-98.391"
           style="fill:none;stroke:#000000;stroke-width:0.35192099;stroke-linecap:butt;stroke-linejoin:miter;stroke-miterlimit:4;stroke-dasharray:none;stroke-opacity:1"
           id="path52"
           inkscape:connector-curvature="0" /></g><text
         transform="matrix(1,0,0,-1,28.410539,362.89728)"
         style="font-variant:normal;font-size:11px;font-family:'MS Gothic';-inkscape-font-specification:MS-Gothic;writing-mode:lr-tb;fill:#000000;fill-opacity:1;fill-rule:nonzero;stroke:none"
         id="text58"><tspan
           x="0 11 22"
           y="0"
           sodipodi:role="line"
           id="tspan54">領域Ⅰ</tspan><tspan
           x="57.19989 68.19989 79.19989 179.9379 190.9379 201.9379"
           y="0.75762391"
           sodipodi:role="line"
           id="tspan56">領域Ⅱ領域Ⅳ</tspan></text>
<path
         d="m 149.594,367.804 c 1.023,0.937 1.84,2.129 2.191,3.48 0.293,-0.054 1.297,0.008 0.762,-0.363 0.461,-0.562 1.652,-0.883 2.16,-1.656 -0.297,-0.492 -0.562,-1.172 -1.008,-0.324 -0.558,0.375 -1.519,1.839 -1.75,0.511 -0.461,-0.679 -1.172,-2.39 -1.922,-2.176 -0.144,0.176 -0.289,0.352 -0.433,0.528 z m 4.34,-5.5 c 0.82,0 1.707,1.109 2.343,0.722 0.895,-0.574 -0.097,-0.656 -0.636,-1.031 -0.543,-0.215 -1.481,-0.906 -1.59,0.035 -0.039,0.09 -0.078,0.184 -0.117,0.274 z m 5.113,1.031 c -1.359,0 -2.723,0 -4.082,0 0,1.934 0,3.867 0,5.801 0.445,0 0.887,0 1.332,0 0.469,0.742 0.379,1.23 -0.508,1.031 -0.324,0.082 -0.973,-0.168 -1.082,0.129 -0.055,0.457 -0.047,0.855 0.523,0.688 1.36,0 2.715,0 4.075,0 -0.047,-0.36 0.195,-1.004 -0.391,-0.817 -0.457,0 -0.914,0 -1.371,0 -0.117,-0.324 -0.492,-0.808 -0.449,-1.031 0.652,0 1.301,0 1.953,0 0,-1.934 0,-3.867 0,-5.801 z m 0.258,-1.805 c -0.637,0.262 -2.016,0.731 -1.957,1.332 0.527,0.848 1.168,-0.128 1.832,-0.32 0.922,-0.191 0.324,-0.492 0.125,-1.012 z m -5.801,6.704 c 0.055,-0.458 0.047,-0.856 -0.524,-0.688 -0.57,0 -1.14,0 -1.71,0 -0.055,0.457 -0.047,0.855 0.523,0.688 0.57,0 1.141,0 1.711,0 z m 4.812,0.214 c -0.875,0 -1.746,0 -2.621,0 0.102,-0.293 -0.222,-1.011 0.196,-0.988 0.808,0 1.617,0 2.425,0 0,0.328 0,0.66 0,0.988 z m 0,-1.675 c -0.875,0 -1.746,0 -2.621,0 0.102,-0.293 -0.222,-1.012 0.196,-0.989 0.808,0 1.617,0 2.425,0 0,0.328 0,0.66 0,0.989 z m 0,-1.676 c -0.875,0 -1.746,0 -2.621,0 0.082,-0.321 -0.168,-0.973 0.129,-1.074 0.832,0 1.664,0 2.492,0 0,0.359 0,0.714 0,1.074 z m -4.168,1.547 c -0.019,-1.098 0.04,-2.2 -0.031,-3.289 -0.133,-0.45 -1.14,-0.496 -1.367,-0.235 -0.219,0.504 -0.012,0.656 0.496,0.559 0.344,0.254 0.098,0.871 0.172,1.285 -0.102,0.293 0.223,1.016 -0.195,0.992 -0.309,-0.086 -0.961,0.176 -1.051,-0.129 0,-1.449 0,-2.894 0,-4.34 -0.317,0.079 -1.024,-0.234 -0.859,0.329 0,1.378 0,2.761 0,4.14 -0.321,0.082 -0.973,-0.168 -1.075,0.129 -0.152,0.559 0.172,0.637 0.653,0.559 1.086,0 2.172,0 3.257,0 z m 13.622,-2.149 c -0.274,1.371 -0.387,2.77 -0.387,4.168 -1.145,0 -2.293,0 -3.438,0 0.004,-0.402 0.129,-0.922 -0.457,-0.73 -0.457,0.047 -0.871,0.054 -0.703,-0.524 0,-0.898 0,-1.8 0,-2.699 0.688,0.606 1.481,0.129 0.934,-0.504 -0.922,-0.363 -2.047,-0.777 -2.867,-1.043 0.031,0.321 -0.43,0.946 -0.024,1.039 0.34,0.137 0.863,0.137 1.098,0.36 0,1.121 0,2.246 0,3.371 -0.313,0.097 -1.031,-0.215 -1.031,0.195 -0.106,0.512 0.058,0.75 0.589,0.621 0.598,-0.191 0.426,0.391 0.442,0.785 0,0.496 0,0.996 0,1.492 0.359,-0.042 1.25,0.18 0.859,-0.39 0,-0.629 0,-1.258 0,-1.887 0.363,0.043 0.906,-0.09 1.16,0.067 -0.058,0.457 -0.039,0.828 0.524,0.664 0.972,0 1.941,0 2.914,0 0,0.586 0,1.175 0,1.761 0.359,-0.043 1.25,0.18 0.859,-0.39 0,-0.457 0,-0.914 0,-1.371 0.36,0.082 1.473,-0.254 0.84,0.382 -0.66,0.508 -0.301,0.801 0.234,1.122 0.543,-0.504 1.043,-1.114 0.145,-1.461 0.027,-0.149 0.832,0.074 0.973,-0.11 0,-0.402 0.132,-0.937 -0.457,-0.75 -0.579,0 -1.157,0 -1.735,0 0.055,-0.847 -0.054,-2.859 0.281,-2.972 0.528,0.488 0.352,2.296 1.153,1.953 0.992,-0.219 -0.196,-1.266 -0.207,-1.926 -0.617,-0.766 -0.906,-2.246 0.16,-2.586 0.172,0.269 -0.004,1.148 0.379,0.977 0.426,-0.149 0.808,-0.317 0.515,-0.809 -0.156,-0.547 -0.226,-1.582 -1.035,-1.34 -1.097,0.063 -1.086,2.465 -1.98,1.113 -0.75,-0.48 -1.969,-1.543 -2.688,-1.316 -0.449,0.644 -0.086,0.926 0.602,1.109 0.855,0.422 1.68,0.938 2.348,1.629 z m -4.082,-0.386 c 1.101,0.023 2.664,0.933 3.406,0.75 0.332,-1 -1.074,-0.875 -1.684,-1.231 -0.644,-0.023 -1.683,-1.012 -1.637,0.109 -0.031,0.125 -0.058,0.247 -0.085,0.372 z m 1.246,1.246 c 0.148,-0.34 -0.852,-0.34 -0.731,-0.02 0,0.82 0,1.645 0,2.469 0.887,0 1.777,0 2.664,0 0,-0.817 0,-1.633 0,-2.449 -0.644,0 -1.289,0 -1.933,0 z m 1.203,0.687 c -0.082,0.32 0.168,0.973 -0.129,1.074 -0.32,-0.082 -0.973,0.168 -1.074,-0.129 0.097,-0.304 -0.243,-1.046 0.261,-0.945 0.313,0 0.629,0 0.942,0 z m 11.086,3.481 c 0,-2.036 0,-4.067 0,-6.102 0.515,0 1.031,0 1.547,0 0,2.035 0,4.066 0,6.102 -0.516,0 -1.032,0 -1.547,0 z m -4.555,0.816 c 2.707,0 5.414,0 8.121,0 -0.047,-0.359 0.195,-1.004 -0.391,-0.816 -0.511,0.097 -0.773,-0.047 -0.64,-0.59 0,-1.836 0,-3.676 0,-5.512 0.312,-0.098 1.031,0.215 1.031,-0.195 0.106,-0.512 -0.059,-0.75 -0.59,-0.621 -2.508,0 -5.019,0 -7.531,0 0.047,0.359 -0.195,1.004 0.391,0.816 0.511,-0.102 0.773,0.047 0.64,0.59 0,1.836 0,3.676 0,5.512 -0.312,0.097 -1.031,-0.215 -1.031,0.195 0,0.207 0,0.414 0,0.621 z m 2.02,-0.816 c 0,-2.036 0,-4.067 0,-6.102 0.515,0 1.031,0 1.546,0 0,2.035 0,4.066 0,6.102 -0.515,0 -1.031,0 -1.546,0 z"
         style="fill:#000000;fill-opacity:1;fill-rule:nonzero;stroke:none"
         id="path60"
         inkscape:connector-curvature="0" /><text
         transform="matrix(1,0,0,-1,269.33193,362.51847)"
         style="font-variant:normal;font-size:11px;font-family:'MS Gothic';-inkscape-font-specification:MS-Gothic;writing-mode:lr-tb;fill:#000000;fill-opacity:1;fill-rule:nonzero;stroke:none"
         id="text68"><tspan
           x="0 11 22"
           y="0"
           sodipodi:role="line"
           id="tspan62">領域Ⅴ</tspan><tspan
           x="65.154823 76.154823 87.154823"
           y="0.37881249"
           sodipodi:role="line"
           id="tspan64">領域Ⅵ</tspan><tspan
           x="136.37059 147.37059 158.37059"
           y="-0.7576195"
           sodipodi:role="line"
           id="tspan66">領域Ⅶ</tspan></text>
<text
         transform="matrix(1,0,0,-1,68.942919,267.43785)"
         style="font-variant:normal;font-weight:normal;font-size:11px;font-family:Verdana;-inkscape-font-specification:Verdana;writing-mode:lr-tb;fill:#000000;fill-opacity:1;fill-rule:nonzero;stroke:none"
         id="text72"><tspan
           x="0"
           y="0"
           id="tspan70">0</tspan></text>
<text
         transform="matrix(1,0,0,-1,127.27592,267.43785)"
         style="font-variant:normal;font-weight:normal;font-size:11px;font-family:'Times New Roman';-inkscape-font-specification:TimesNewRomanPSMT;writing-mode:lr-tb;fill:#000000;fill-opacity:1;fill-rule:nonzero;stroke:none"
         id="text76"><tspan
           x="0"
           y="0"
           id="tspan74">d</tspan></text>
<text
         transform="matrix(1,0,0,-1,188.64599,266.30147)"
         style="font-style:italic;font-variant:normal;font-size:11px;font-family:Verdana;-inkscape-font-specification:Verdana-Italic;writing-mode:lr-tb;fill:#000000;fill-opacity:1;fill-rule:nonzero;stroke:none"
         id="text80"><tspan
           x="0"
           y="0"
           id="tspan78">l</tspan></text>
<text
         transform="matrix(1,0,0,-1,191.67528,264.10146)"
         style="font-style:italic;font-variant:normal;font-size:8px;font-family:Verdana;-inkscape-font-specification:Verdana-Italic;writing-mode:lr-tb;fill:#000000;fill-opacity:1;fill-rule:nonzero;stroke:none"
         id="text84"><tspan
           x="0"
           y="0"
           id="tspan82">1</tspan></text>
<text
         transform="matrix(1,0,0,-1,252.09618,265.35443)"
         style="font-style:italic;font-variant:normal;font-size:11px;font-family:Verdana;-inkscape-font-specification:Verdana-Italic;writing-mode:lr-tb;fill:#000000;fill-opacity:1;fill-rule:nonzero;stroke:none"
         id="text88"><tspan
           x="0"
           y="0"
           id="tspan86">l</tspan></text>
<text
         transform="matrix(1,0,0,-1,255.12547,265.35443)"
         style="font-style:italic;font-variant:normal;font-size:8px;font-family:Verdana;-inkscape-font-specification:Verdana-Italic;writing-mode:lr-tb;fill:#000000;fill-opacity:1;fill-rule:nonzero;stroke:none"
         id="text92"><tspan
           x="0"
           y="0"
           id="tspan90">2</tspan></text>
<text
         transform="matrix(1,0,0,-1,311.1901,265.73325)"
         style="font-style:italic;font-variant:normal;font-size:11px;font-family:Verdana;-inkscape-font-specification:Verdana-Italic;writing-mode:lr-tb;fill:#000000;fill-opacity:1;fill-rule:nonzero;stroke:none"
         id="text96"><tspan
           x="0"
           y="0"
           id="tspan94">l</tspan></text>
<text
         transform="matrix(1,0,0,-1,314.2194,265.73325)"
         style="font-style:italic;font-variant:normal;font-size:8px;font-family:Verdana;-inkscape-font-specification:Verdana-Italic;writing-mode:lr-tb;fill:#000000;fill-opacity:1;fill-rule:nonzero;stroke:none"
         id="text100"><tspan
           x="0"
           y="0"
           id="tspan98">3</tspan></text>
<text
         transform="matrix(1,0,0,-1,378.99657,266.49087)"
         style="font-style:italic;font-variant:normal;font-size:11px;font-family:Verdana;-inkscape-font-specification:Verdana-Italic;writing-mode:lr-tb;fill:#000000;fill-opacity:1;fill-rule:nonzero;stroke:none"
         id="text104"><tspan
           x="0"
           y="0"
           id="tspan102">l</tspan></text>
<text
         transform="matrix(1,0,0,-1,382.02587,266.49087)"
         style="font-style:italic;font-variant:normal;font-size:8px;font-family:Verdana;-inkscape-font-specification:Verdana-Italic;writing-mode:lr-tb;fill:#000000;fill-opacity:1;fill-rule:nonzero;stroke:none"
         id="text108"><tspan
           x="0"
           y="0"
           id="tspan106">4</tspan></text>
<text
         transform="matrix(1,0,0,-1,467.25866,269.14251)"
         style="font-style:italic;font-variant:normal;font-size:11px;font-family:Verdana;-inkscape-font-specification:Verdana-Italic;writing-mode:lr-tb;fill:#000000;fill-opacity:1;fill-rule:nonzero;stroke:none"
         id="text112"><tspan
           x="0"
           y="0"
           id="tspan110">x</tspan></text>
</g></g></svg>